<?xml version="1.0" encoding="UTF-8" standalone="no"?>
<svg
   width="35"
   height="35"
   viewBox="0 0 55 55"
   fill="none"
   version="1.1"
   id="svg1"
   xmlns="http://www.w3.org/2000/svg"
   xmlns:svg="http://www.w3.org/2000/svg">
  <defs
     id="defs1" />
  <path
     d="m 16.0417,25.2083 v -9.1667 c 0,-3.0389 1.2072,-5.9534 3.356,-8.10222 2.1489,-2.14885 5.0634,-3.35607 8.1023,-3.35607 3.0389,0 5.9534,1.20722 8.1023,3.35607 2.1488,2.14882 3.356,5.06332 3.356,8.10222 v 9.1667 m -27.5,0 h 32.0834 c 2.5313,0 4.5833,2.052 4.5833,4.5833 v 16.0417 c 0,2.5313 -2.052,4.5833 -4.5833,4.5833 H 11.4583 c -2.53127,0 -4.5833,-2.052 -4.5833,-4.5833 V 29.7916 c 0,-2.5313 2.05203,-4.5833 4.5833,-4.5833 z"
     stroke="#f5f5f5"
     stroke-width="4"
     stroke-linecap="round"
     stroke-linejoin="round"
     id="path1"
     style="fill:none" />
  <path
     style="fill:#e6e6e6;stroke-width:1.57143"
     d="m 18.415073,38.437049 5.480944,6.231311 a 1.4517414,1.4517414 2.5619352 0 0 2.09015,0.09352 l 10.636241,-10.1082 a 0.76527574,0.76527574 91.629637 0 0 0.03069,-1.078583 L 34.400507,31.17624 a 0.83217215,0.83217215 1.280499 0 0 -1.187218,-0.02654 l -7.154006,6.966728 a 0.73624947,0.73624947 2.3238738 0 1 -1.068366,-0.04336 l -2.83418,-3.247497 a 1.2083999,1.2083999 2.4524381 0 0 -1.749606,-0.07493 l -1.916977,1.850105 a 1.3306552,1.3306552 92.341361 0 0 -0.07508,1.8363 z"
     id="path2"
     transform="translate(0.52260971,0.08710162)" />
</svg>