<svg width="35" height="35" viewBox="0 0 55 55" fill="none" xmlns="http://www.w3.org/2000/svg">
<path d="M16.0417 25.2083V16.0416C16.0417 13.0027 17.2489 10.0882 19.3977 7.93938C21.5466 5.79053 24.4611 4.58331 27.5 4.58331C30.5389 4.58331 33.4534 5.79053 35.6023 7.93938C37.7511 10.0882 38.9583 13.0027 38.9583 16.0416V25.2083M11.4583 25.2083H43.5417C46.073 25.2083 48.125 27.2603 48.125 29.7916V45.8333C48.125 48.3646 46.073 50.4166 43.5417 50.4166H11.4583C8.92703 50.4166 6.875 48.3646 6.875 45.8333V29.7916C6.875 27.2603 8.92703 25.2083 11.4583 25.2083Z" stroke="#F5F5F5" stroke-width="4" stroke-linecap="round" stroke-linejoin="round"/>
</svg>