<svg width="25" height="25" viewBox="0 0 25 25" fill="none" xmlns="http://www.w3.org/2000/svg">
<path d="M23.0377 6.12847L12.1332 17.0329C11.0473 18.1188 7.82388 18.6218 7.10377 17.9016C6.38366 17.1815 6.87517 13.9582 7.96105 12.8723L18.877 1.95636C19.1462 1.66267 19.4721 1.42659 19.8351 1.26234C20.198 1.09808 20.5906 1.00904 20.9889 1.00065C21.3871 0.992274 21.7831 1.06467 22.1526 1.21351C22.5222 1.36234 22.8578 1.58455 23.1391 1.86665C23.4204 2.14875 23.6417 2.48491 23.7895 2.85487C23.9372 3.22483 24.0087 3.62089 23.9992 4.01918C23.9897 4.41747 23.8995 4.80975 23.7344 5.17226C23.5691 5.53478 23.3321 5.86007 23.0377 6.12847Z" stroke="white" stroke-opacity="0.5" stroke-width="1.5" stroke-linecap="round" stroke-linejoin="round"/>
<path d="M11.2873 3.38513H5.57213C4.35952 3.38513 3.19666 3.86683 2.33921 4.72427C1.48178 5.58172 1 6.74465 1 7.95726V19.3876C1 20.6002 1.48178 21.7632 2.33921 22.6205C3.19666 23.478 4.35952 23.9597 5.57213 23.9597H18.1455C20.6716 23.9597 21.5746 21.9023 21.5746 19.3876V13.6724" stroke="white" stroke-opacity="0.5" stroke-width="1.5" stroke-linecap="round" stroke-linejoin="round"/>
</svg>